PathFileType	4	(X/Y/Z)	D:\Long Term Storage\D'Arcy Smith\Coord6.trc
DataRate	CameraRate	NumFrames	NumMarkers	Units	OrigDataRate	OrigDataStartFrame	OrigNumFrames
120.00	120.00	      50	4	mm	120.00	1	      4863
Frame#	Time	M1			M2			M3			M4			
		X1	Y1	Z1	X2	Y2	Z2	X3	Y3	Z3	X4	Y4	Z4	

1	0.000	1084.72559	322.40121	419.36505	1607.27979	330.90845	645.53900							
2	0.008	1082.73499	319.30237	429.68393	1606.18958	331.53293	649.18579							
3	0.017	1081.25940	316.57938	440.17419	1605.18591	331.75519	652.38824							
4	0.025	1079.64038	314.70853	450.53156	1604.87500	331.94153	655.18481							
5	0.033	1077.96509	312.78674	461.39224	1604.45361	331.74738	657.48645							
6	0.042	1076.39600	311.16055	472.57684	1604.13989	331.59207	659.40710							
7	0.050	1074.77185	310.33307	483.90796	1603.85046	331.36420	661.01959							
8	0.058	1073.10193	309.93484	495.19839	1603.63159	331.17230	662.18707							
9	0.067	1071.31653	309.93918	506.38510	1603.40649	331.08734	663.00336							
10	0.075	1069.58704	310.50287	517.39166	1603.39551	331.05927	663.39362							
11	0.083	1068.13904	311.03961	527.92151	1603.45325	331.04016	663.39813							
12	0.092	1065.95886	312.23312	539.52264	1603.60315	331.03586	662.97675							
13	0.100	1064.42627	313.75864	549.51563	1604.02271	330.99948	662.13794							
14	0.108	1062.83386	315.36212	559.33142	1604.40100	330.83575	660.93414							
15	0.117	1060.84985	317.00925	568.77991	1604.97412	330.53903	659.33118							
16	0.125	1058.70776	319.18542	577.98962	1605.62756	330.10059	657.34283							
17	0.133	1056.89575	320.97174	586.74768	1605.99121	329.25302	654.74548							
18	0.142	1055.27075	322.90363	594.99664	1607.24951	328.56421	651.72266							
19	0.150	1052.92419	324.72806	602.74432	1608.10242	327.72366	648.30939							
20	0.158	1051.07629	327.05417	609.98901	1608.97144	326.57379	644.00916							
21	0.167	1049.03235	329.63208	616.49756	1609.87280	325.40848	639.07715							
22	0.175	1047.29431	332.76215	622.70740	1609.93445	323.70154	633.05029							
23	0.183	1045.30347	335.46664	627.54114	1610.86169	322.35724	626.14032							
24	0.192	1043.52454	337.93399	631.65948	1611.34119	320.91559	618.17627							
25	0.200	1041.52588	340.15897	634.59442	1611.51868	319.06653	609.17023							
26	0.208	1039.77356	343.43777	637.09882	1611.90247	317.53394	599.15375							
27	0.217	1038.63220	344.68042	638.05786	1612.16638	315.80487	588.30328							
28	0.225	1037.36926	346.24130	638.09149	1612.52014	314.45816	576.40973							
29	0.233	1036.51001	347.06741	636.77814	1612.57996	312.28891	563.43915							
30	0.242	1035.87195	347.07886	634.55261	1612.87231	311.72244	550.12878							
31	0.250	1036.30505	346.20282	631.03528	1613.02148	311.53009	536.51343							
32	0.258	1036.57532	345.16281	626.68243	1612.52271	310.74634	521.33704							
33	0.267	1036.61707	343.11856	620.77789	1612.78418	311.44681	506.39346							
34	0.275	1037.31396	341.12961	614.11688	1612.79309	312.36957	490.93561							
35	0.283	1038.85681	338.77725	606.34521	1613.17078	313.25211	475.32468							
36	0.292	1040.27405	336.40408	597.43866	1613.16711	315.77264	459.66922							
37	0.300	1042.41858	333.93118	587.63574	1612.92688	318.57382	443.83292							
38	0.308	1044.38916	331.60809	576.78491	1613.64868	322.04376	430.02914							
39	0.317	1046.99744	329.44061	564.94537	1611.65417	326.20834	411.25024							
40	0.325	1049.58044	327.53470	552.40289	1611.16016	330.98297	395.95490							
41	0.333	1052.68945	326.12903	539.19836	1610.53748	336.78696	381.38293							
42	0.342	1056.05066	325.27979	525.24933	1610.12512	342.92236	367.34195							
43	0.350	1059.60718	324.88617	510.10162	1609.53284	349.93634	355.01904							
44	0.358	1063.05737	325.44031	495.36725	1608.59399	356.77182	342.19577							
45	0.367	1066.90527	325.99194	479.92355	1608.13123	363.91827	330.25626							
46	0.375	1071.11328	327.41074	464.06790	1607.32178	371.57245	319.35529							
47	0.383	1075.54236	328.78888	448.54053	1607.04553	378.95657	309.16345							
48	0.392	1079.77502	331.46561	432.13196	1606.53394	386.79544	299.79633							
49	0.400	1084.11719	334.79044	416.09647	1606.76648	394.00983	291.15439							
50	0.408	1088.20203	338.75226	399.97043	1606.73608	401.32974	283.42224							
